<svg width="104" height="21" viewBox="0 0 104 21" fill="none" xmlns="http://www.w3.org/2000/svg">
<path d="M4.36269 0.0001085L0 3.27368L3.06615 7.93151L7.42884 4.65793L4.36269 0.0001085Z" fill="#FFA306"/>
<path d="M13.5082 14.3899H8.17578V20.083H13.5082V14.3899Z" fill="#001EE0"/>
<path d="M13.5082 3.03369H8.17578V8.72681H13.5082V3.03369Z" fill="#001EE0"/>
<path d="M18.8363 8.72656H13.5039V14.4197H18.8363V8.72656Z" fill="#001EE0"/>
<path d="M13.5039 20.083V14.3899H18.8363" fill="#00CEFF"/>
<path d="M18.8363 8.72681H13.5039V3.03369" fill="#00CEFF"/>
<path d="M8.17614 8.75708H2.84375V20.0824H8.17614V8.75708Z" fill="#001EE0"/>
<path d="M22.4648 16.2923V7.15894H27.2127C28.2677 7.15894 29.166 7.3416 29.9074 7.69171C30.6345 8.04183 31.2048 8.55938 31.5755 9.22916C31.9605 9.89894 32.1458 10.7209 32.1458 11.6799C32.1458 12.6694 31.9605 13.5066 31.5755 14.2068C31.1906 14.8918 30.6345 15.4246 29.9074 15.7747C29.1802 16.1248 28.282 16.3075 27.2127 16.3075H22.4648V16.2923ZM24.7461 14.4352H27.0701C27.6689 14.4352 28.1822 14.3286 28.5814 14.1307C28.9949 13.9328 29.3086 13.6284 29.5224 13.2326C29.7363 12.8368 29.8361 12.3345 29.8361 11.7256C29.8361 11.1319 29.7363 10.6296 29.5224 10.2338C29.3086 9.83805 29.0091 9.53361 28.5957 9.3205C28.1822 9.10738 27.6689 9.01605 27.0558 9.01605H24.7318V14.4504L24.7461 14.4352Z" fill="#05112B"/>
<path d="M33.1445 16.2927V9.48832H35.3402V10.8888H35.3687C35.4971 10.4017 35.7252 10.0211 36.0674 9.7471C36.4095 9.48832 36.8373 9.35132 37.3506 9.35132C37.8638 9.35132 37.5787 9.35132 37.707 9.36654C37.8211 9.36654 37.9209 9.39699 38.0064 9.42743V11.2845C37.8923 11.2541 37.764 11.2389 37.6357 11.2084C37.5074 11.1932 37.3648 11.178 37.2222 11.178C36.8373 11.178 36.5094 11.2541 36.2385 11.3911C35.9533 11.5433 35.7394 11.7564 35.5826 12.0457C35.4258 12.3349 35.3545 12.7154 35.3545 13.1569V16.2622H33.1588L33.1445 16.2927Z" fill="#05112B"/>
<path d="M42.3535 16.4447C41.5123 16.4447 40.7851 16.3077 40.1721 16.0184C39.559 15.7292 39.0742 15.3182 38.732 14.7854C38.3898 14.2526 38.2188 13.6133 38.2188 12.8826C38.2188 12.1368 38.3898 11.5126 38.732 10.9799C39.0742 10.4471 39.559 10.0361 40.1721 9.74687C40.7851 9.45764 41.5123 9.30542 42.3535 9.30542C43.1947 9.30542 43.9218 9.45764 44.5349 9.73164C45.1623 10.0209 45.6328 10.4319 45.975 10.9646C46.3171 11.4974 46.4882 12.1215 46.4882 12.8522C46.4882 13.5981 46.3171 14.2374 45.975 14.7702C45.6328 15.303 45.1623 15.714 44.5349 16.0032C43.9076 16.2924 43.1804 16.4294 42.3535 16.4294V16.4447ZM42.3535 14.8007C42.7384 14.8007 43.0664 14.7245 43.3515 14.5723C43.6367 14.4201 43.8506 14.207 44.0216 13.9178C44.1785 13.6285 44.264 13.2936 44.264 12.8826C44.264 12.4716 44.1785 12.1215 44.0216 11.8323C43.8648 11.5431 43.6367 11.33 43.3515 11.1778C43.0664 11.0255 42.7384 10.9494 42.3535 10.9494C41.9685 10.9494 41.6406 11.0255 41.3554 11.1778C41.0703 11.33 40.8422 11.5431 40.6853 11.8323C40.5285 12.1215 40.443 12.4564 40.443 12.8674C40.443 13.2784 40.5285 13.6285 40.6853 13.9178C40.8422 14.207 41.0703 14.4201 41.3554 14.5723C41.6406 14.7245 41.9685 14.8007 42.3392 14.8007H42.3535Z" fill="#05112B"/>
<path d="M47.3574 18.4997V9.47287H49.5531V10.7211H49.5959C49.7527 10.4471 49.9666 10.2035 50.209 9.99042C50.4656 9.77731 50.765 9.60987 51.1215 9.48809C51.4779 9.36631 51.8629 9.30542 52.3049 9.30542C52.9892 9.30542 53.5738 9.45764 54.0871 9.74687C54.6003 10.0361 54.9853 10.4471 55.2705 10.9951C55.5556 11.5431 55.6839 12.152 55.6839 12.8674C55.6839 13.5981 55.5414 14.2222 55.2705 14.7702C54.9996 15.303 54.6003 15.714 54.1013 16.0032C53.6023 16.2924 53.0035 16.4447 52.3334 16.4447C51.6633 16.4447 51.4922 16.3838 51.15 16.2772C50.7935 16.1554 50.4941 16.0032 50.2375 15.7901C49.9808 15.577 49.767 15.3334 49.6244 15.0594H49.5816V18.5149H47.3859L47.3574 18.4997ZM51.5207 14.7702C51.9056 14.7702 52.2478 14.6941 52.5472 14.5419C52.8324 14.3897 53.0605 14.1765 53.2173 13.8873C53.3742 13.5981 53.4455 13.2632 53.4455 12.8826C53.4455 12.4869 53.3742 12.152 53.2173 11.8628C53.0605 11.5735 52.8466 11.3604 52.5472 11.2082C52.2621 11.056 51.9199 10.9799 51.5207 10.9799C51.1215 10.9799 50.7793 11.056 50.4799 11.2082C50.1804 11.3604 49.9523 11.5735 49.7955 11.8628C49.6244 12.152 49.5531 12.4716 49.5531 12.8674C49.5531 13.2632 49.6387 13.5981 49.7955 13.8873C49.9666 14.1765 50.1947 14.3897 50.4799 14.5419C50.7793 14.6941 51.1215 14.7702 51.5207 14.7702Z" fill="#05112B"/>
<path d="M61.2209 16.4752C60.2656 16.4752 59.4529 16.3687 58.7543 16.1404C58.0699 15.9272 57.5281 15.6076 57.1289 15.1814C56.7297 14.7551 56.4873 14.2376 56.416 13.6439V13.5678H58.5974V13.6287C58.6687 13.8722 58.8113 14.0701 59.0252 14.2376C59.239 14.405 59.5385 14.5268 59.9092 14.6181C60.2799 14.7095 60.7361 14.7551 61.2636 14.7551C61.7912 14.7551 62.0906 14.7095 62.4043 14.6181C62.7179 14.5268 62.9603 14.405 63.1314 14.2376C63.3025 14.0701 63.388 13.8722 63.388 13.6439C63.388 13.3547 63.274 13.1416 63.0459 12.9893C62.8177 12.8523 62.4185 12.7458 61.8625 12.6697L59.7523 12.487C58.6973 12.3805 57.9131 12.1065 57.3855 11.6802C56.858 11.254 56.6014 10.6603 56.6014 9.88401C56.6014 9.27512 56.7725 8.75756 57.1289 8.31612C57.4711 7.8899 57.9701 7.55501 58.6117 7.32667C59.2533 7.08312 60.009 6.97656 60.8929 6.97656C61.7769 6.97656 62.5754 7.08312 63.217 7.31145C63.8585 7.52456 64.3718 7.84423 64.7568 8.25523C65.1275 8.66623 65.3699 9.16856 65.4554 9.76223V9.85357H63.274V9.79268C63.2027 9.54912 63.0744 9.35123 62.8748 9.18379C62.6894 9.01634 62.4185 8.89457 62.1048 8.81845C61.7769 8.72712 61.392 8.69668 60.9215 8.69668C60.451 8.69668 60.1088 8.74234 59.7951 8.81845C59.4957 8.90979 59.2533 9.01634 59.1107 9.16857C58.9539 9.32079 58.8826 9.50346 58.8826 9.71657C58.8826 9.99057 58.9967 10.2037 59.239 10.3559C59.4672 10.4929 59.8664 10.5995 60.3939 10.6603L62.5468 10.8278C63.2597 10.9039 63.8443 11.0561 64.3148 11.2692C64.771 11.4823 65.1132 11.7716 65.3414 12.1217C65.5695 12.4718 65.6835 12.9132 65.6835 13.4308C65.6835 14.0549 65.5124 14.6029 65.156 15.0444C64.7996 15.4858 64.3005 15.8359 63.6447 16.0795C62.9888 16.323 62.1904 16.4448 61.2494 16.4448L61.2209 16.4752Z" fill="#05112B"/>
<path d="M70.2742 16.3838C69.2904 16.3838 68.5633 16.2012 68.107 15.8206C67.6508 15.4401 67.4227 14.8464 67.4227 13.994V11.0561H66.168V9.45772H67.4227V7.81372H69.6183V9.45772H71.5431V11.0561H69.6183V13.6743C69.6183 14.0701 69.7181 14.3593 69.9035 14.5267C70.0888 14.6942 70.4168 14.7703 70.8588 14.7703C71.3008 14.7703 71.1011 14.7703 71.2295 14.7551C71.3435 14.7551 71.4576 14.7398 71.5431 14.7246V16.2773C71.372 16.3077 71.1724 16.323 70.9443 16.3382C70.7162 16.3534 70.4881 16.3686 70.2599 16.3686L70.2742 16.3838Z" fill="#05112B"/>
<path d="M76.2871 16.4447C75.4459 16.4447 74.7187 16.3077 74.1057 16.0184C73.4926 15.7292 73.0078 15.3182 72.6656 14.7854C72.3234 14.2526 72.1523 13.6133 72.1523 12.8826C72.1523 12.1368 72.3234 11.5126 72.6656 10.9799C73.0078 10.4471 73.4926 10.0361 74.1057 9.74687C74.7187 9.45764 75.4459 9.30542 76.2871 9.30542C77.1283 9.30542 77.8554 9.45764 78.4685 9.73164C79.0959 10.0209 79.5664 10.4319 79.9085 10.9646C80.2507 11.4974 80.4218 12.1215 80.4218 12.8522C80.4218 13.5981 80.2507 14.2374 79.9085 14.7702C79.5664 15.303 79.0959 15.714 78.4685 16.0032C77.8412 16.2924 77.114 16.4294 76.2871 16.4294V16.4447ZM76.2871 14.8007C76.672 14.8007 77 14.7245 77.2851 14.5723C77.5703 14.4201 77.7841 14.207 77.9552 13.9178C78.1121 13.6285 78.1976 13.2936 78.1976 12.8826C78.1976 12.4716 78.1121 12.1215 77.9552 11.8323C77.7984 11.5431 77.5703 11.33 77.2851 11.1778C77 11.0255 76.672 10.9494 76.2871 10.9494C75.9021 10.9494 75.5742 11.0255 75.289 11.1778C75.0039 11.33 74.7758 11.5431 74.6189 11.8323C74.4621 12.1215 74.3766 12.4564 74.3766 12.8674C74.3766 13.2784 74.4621 13.6285 74.6189 13.9178C74.7758 14.207 75.0039 14.4201 75.289 14.5723C75.5742 14.7245 75.9021 14.8007 76.2728 14.8007H76.2871Z" fill="#05112B"/>
<path d="M85.1597 16.4446C84.3328 16.4446 83.6056 16.3076 82.9926 16.0183C82.3795 15.7291 81.909 15.3181 81.5811 14.7853C81.2531 14.2526 81.082 13.6132 81.082 12.8826C81.082 12.1519 81.2531 11.5126 81.5811 10.9798C81.909 10.447 82.3795 10.036 82.9926 9.74678C83.6056 9.45756 84.3185 9.32056 85.1455 9.32056C85.9724 9.32056 86.5142 9.44233 87.0845 9.67067C87.6406 9.899 88.0826 10.2339 88.4248 10.6449C88.7669 11.0711 88.9665 11.5582 89.0236 12.1214V12.1823H86.942V12.1367C86.8279 11.7713 86.6425 11.4821 86.3289 11.2842C86.0295 11.0711 85.6588 10.9646 85.2025 10.9646C84.7463 10.9646 84.4754 11.0407 84.1902 11.1929C83.9051 11.3451 83.6912 11.5734 83.5344 11.8474C83.3775 12.1367 83.3062 12.4716 83.3062 12.8673C83.3062 13.2783 83.3775 13.6285 83.5344 13.9177C83.6912 14.2069 83.9051 14.42 84.1902 14.5722C84.4754 14.7245 84.8176 14.8006 85.2168 14.8006C85.616 14.8006 86.0437 14.694 86.3431 14.4961C86.6425 14.2982 86.8421 14.009 86.942 13.6285V13.5676H89.0521V13.6437C88.9808 14.2069 88.7812 14.694 88.439 15.105C88.0968 15.5312 87.6548 15.8509 87.0988 16.0792C86.5427 16.3076 85.9011 16.4293 85.174 16.4293L85.1597 16.4446Z" fill="#05112B"/>
<path d="M89.9062 16.2923V7.15894H92.1019V16.2923H89.9062ZM91.831 14.3895V12.1518H92.1447L95.1531 9.47272H97.7623L93.8842 12.9738L93.3851 13.0804L91.8453 14.3895H91.831ZM95.2957 16.2923L92.6295 13.1261L94.1123 11.7104L97.9191 16.2771H95.2957V16.2923Z" fill="#05112B"/>
<path d="M99.2844 9.53385V7.64629H98.4004V7.15918H100.739V7.64629H99.8689V9.53385H99.2844Z" fill="black"/>
<path d="M101.007 9.53385V7.15918H101.706L102.504 8.84885L103.303 7.15918H104.001V9.53385H103.459V7.95074H103.231L103.645 7.47885L102.689 9.53385H102.29L101.335 7.47885L101.748 7.95074H101.52V9.53385H100.979H101.007Z" fill="black"/>
</svg>
