<svg width="145" height="29" viewBox="0 0 145 29" fill="none" xmlns="http://www.w3.org/2000/svg">
<path d="M6.08269 0.515893L0 5.08008L4.27499 11.5743L10.3577 7.01007L6.08269 0.515893Z" fill="#FFA306"/>
<path d="M18.8351 20.5784H11.4004V28.516H18.8351V20.5784Z" fill="#001EE0"/>
<path d="M18.8351 4.74536H11.4004V12.683H18.8351V4.74536Z" fill="#001EE0"/>
<path d="M26.2687 12.6829H18.834V20.6205H26.2687V12.6829Z" fill="#001EE0"/>
<path d="M18.834 28.516V20.5784H26.2687" fill="#00CEFF"/>
<path d="M26.2687 12.683H18.834V4.74536" fill="#00CEFF"/>
<path d="M11.3995 12.7253H3.96484V28.5157H11.3995V12.7253Z" fill="#001EE0"/>
<path d="M31.3184 23.231V10.4968H37.938C39.4091 10.4968 40.6614 10.7515 41.6951 11.2397C42.7089 11.7278 43.5041 12.4494 44.0209 13.3832C44.5577 14.3171 44.8161 15.4632 44.8161 16.8002C44.8161 18.1798 44.5577 19.3471 44.0209 20.3234C43.4842 21.2784 42.7089 22.0213 41.6951 22.5094C40.6813 22.9976 39.4289 23.2522 37.938 23.2522H31.3184V23.231ZM34.499 20.6417H37.7392C38.5741 20.6417 39.2898 20.4932 39.8464 20.2173C40.4229 19.9413 40.8602 19.5169 41.1584 18.9651C41.4566 18.4132 41.5957 17.7129 41.5957 16.8639C41.5957 16.0362 41.4566 15.3358 41.1584 14.784C40.8602 14.2322 40.4428 13.8077 39.8663 13.5106C39.2898 13.2135 38.5741 13.0861 37.7193 13.0861H34.4791V20.663L34.499 20.6417Z" fill="white"/>
<path d="M46.207 23.2312V13.7442H49.2684V15.6968H49.3081C49.487 15.0177 49.8051 14.4871 50.2822 14.105C50.7593 13.7442 51.3557 13.5532 52.0713 13.5532C52.7869 13.5532 52.3894 13.5532 52.5683 13.5744C52.7273 13.5744 52.8664 13.6169 52.9857 13.6593V16.2486C52.8267 16.2062 52.6478 16.185 52.4689 16.1425C52.29 16.1213 52.0912 16.1001 51.8924 16.1001C51.3556 16.1001 50.8984 16.2062 50.5207 16.3972C50.1232 16.6094 49.825 16.9066 49.6063 17.3098C49.3876 17.7131 49.2883 18.2436 49.2883 18.8591V23.1888H46.2269L46.207 23.2312Z" fill="white"/>
<path d="M59.0481 23.4431C57.8752 23.4431 56.8614 23.2521 56.0066 22.8489C55.1518 22.4456 54.4759 21.8726 53.9988 21.1298C53.5218 20.3869 53.2832 19.4955 53.2832 18.4768C53.2832 17.4369 53.5218 16.5667 53.9988 15.8239C54.4759 15.081 55.1518 14.508 56.0066 14.1047C56.8614 13.7015 57.8752 13.4893 59.0481 13.4893C60.2209 13.4893 61.2347 13.7015 62.0895 14.0835C62.9642 14.4868 63.6202 15.0598 64.0973 15.8026C64.5744 16.5455 64.8129 17.4156 64.8129 18.4344C64.8129 19.4743 64.5744 20.3657 64.0973 21.1085C63.6202 21.8514 62.9642 22.4244 62.0895 22.8277C61.2149 23.2309 60.201 23.4219 59.0481 23.4219V23.4431ZM59.0481 21.151C59.5848 21.151 60.042 21.0449 60.4396 20.8326C60.8372 20.6204 61.1354 20.3233 61.3739 19.92C61.5926 19.5168 61.7118 19.0499 61.7118 18.4768C61.7118 17.9038 61.5926 17.4156 61.3739 17.0124C61.1552 16.6091 60.8372 16.312 60.4396 16.0998C60.042 15.8875 59.5848 15.7814 59.0481 15.7814C58.5113 15.7814 58.0541 15.8875 57.6566 16.0998C57.259 16.312 56.9409 16.6091 56.7222 17.0124C56.5036 17.4156 56.3843 17.8826 56.3843 18.4556C56.3843 19.0286 56.5036 19.5168 56.7222 19.92C56.9409 20.3233 57.259 20.6204 57.6566 20.8326C58.0541 21.0449 58.5113 21.151 59.0282 21.151H59.0481Z" fill="white"/>
<path d="M66.0254 26.3083V13.7227H69.0867V15.4631H69.1464C69.365 15.081 69.6632 14.7415 70.0012 14.4443C70.359 14.1472 70.7764 13.9137 71.2734 13.7439C71.7704 13.5742 72.3071 13.4893 72.9234 13.4893C73.8775 13.4893 74.6926 13.7015 75.4082 14.1047C76.1239 14.508 76.6606 15.081 77.0582 15.8451C77.4557 16.6091 77.6346 17.4581 77.6346 18.4556C77.6346 19.4743 77.4359 20.3445 77.0582 21.1085C76.6805 21.8514 76.1239 22.4244 75.4281 22.8277C74.7323 23.2309 73.8974 23.4431 72.9631 23.4431C72.0288 23.4431 71.7903 23.3583 71.3132 23.2097C70.8162 23.0399 70.3987 22.8277 70.0409 22.5305C69.6831 22.2334 69.3849 21.8938 69.1861 21.5118H69.1265V26.3296H66.0652L66.0254 26.3083ZM71.83 21.1085C72.3667 21.1085 72.8438 21.0024 73.2613 20.7902C73.6589 20.578 73.9769 20.2808 74.1956 19.8776C74.4143 19.4743 74.5137 19.0074 74.5137 18.4768C74.5137 17.925 74.4143 17.4581 74.1956 17.0548C73.9769 16.6516 73.6787 16.3544 73.2613 16.1422C72.8637 15.93 72.3866 15.8239 71.83 15.8239C71.2734 15.8239 70.7963 15.93 70.3789 16.1422C69.9614 16.3544 69.6433 16.6516 69.4247 17.0548C69.1861 17.4581 69.0867 17.9038 69.0867 18.4556C69.0867 19.0074 69.206 19.4743 69.4247 19.8776C69.6632 20.2808 69.9813 20.578 70.3789 20.7902C70.7963 21.0024 71.2734 21.1085 71.83 21.1085Z" fill="white"/>
<path d="M85.3515 23.486C84.0196 23.486 82.8865 23.3374 81.9125 23.0191C80.9583 22.7219 80.2029 22.2762 79.6463 21.682C79.0897 21.0877 78.7517 20.3661 78.6523 19.5384V19.4323H81.6938V19.5172C81.7932 19.8567 81.992 20.1326 82.2902 20.3661C82.5884 20.5996 83.0058 20.7694 83.5227 20.8967C84.0395 21.024 84.6756 21.0877 85.4112 21.0877C86.1467 21.0877 86.5641 21.024 87.0015 20.8967C87.4388 20.7694 87.7767 20.5996 88.0153 20.3661C88.2538 20.1326 88.3731 19.8567 88.3731 19.5384C88.3731 19.1351 88.2141 18.838 87.896 18.6258C87.5779 18.4348 87.0213 18.2862 86.2461 18.1801L83.304 17.9254C81.833 17.7768 80.7396 17.3948 80.0041 16.8005C79.2686 16.2063 78.9108 15.3786 78.9108 14.2961C78.9108 13.4472 79.1493 12.7256 79.6463 12.1101C80.1234 11.5158 80.8191 11.0489 81.7137 10.7306C82.6082 10.391 83.6618 10.2424 84.8943 10.2424C86.1268 10.2424 87.24 10.391 88.1346 10.7094C89.0291 11.0065 89.7447 11.4522 90.2815 12.0252C90.7983 12.5983 91.1363 13.2986 91.2555 14.1264V14.2537H88.2141V14.1688C88.1147 13.8292 87.9358 13.5533 87.6575 13.3199C87.399 13.0864 87.0213 12.9166 86.584 12.8105C86.1268 12.6831 85.5901 12.6407 84.9341 12.6407C84.2781 12.6407 83.801 12.7044 83.3636 12.8105C82.9462 12.9378 82.6082 13.0864 82.4094 13.2986C82.1908 13.5109 82.0914 13.7656 82.0914 14.0627C82.0914 14.4447 82.2504 14.7418 82.5884 14.9541C82.9064 15.1451 83.463 15.2937 84.1985 15.3786L87.2003 15.612C88.1942 15.7181 89.0092 15.9304 89.6652 16.2275C90.3014 16.5246 90.7784 16.9279 91.0965 17.416C91.4146 17.9042 91.5736 18.5197 91.5736 19.2413C91.5736 20.1114 91.3351 20.8755 90.8381 21.491C90.3411 22.1064 89.6454 22.5946 88.7309 22.9342C87.8165 23.2737 86.7033 23.4435 85.3913 23.4435L85.3515 23.486Z" fill="white"/>
<path d="M97.9751 23.3583C96.6035 23.3583 95.5897 23.1036 94.9535 22.5731C94.3174 22.0425 93.9993 21.2147 93.9993 20.0262V15.9301H92.25V13.7016H93.9993V11.4094H97.0607V13.7016H99.7443V15.9301H97.0607V19.5805C97.0607 20.1323 97.1998 20.5356 97.4583 20.769C97.7167 21.0025 98.1739 21.1086 98.7901 21.1086C99.4064 21.1086 99.1281 21.1086 99.307 21.0874C99.466 21.0874 99.6251 21.0662 99.7443 21.045V23.2098C99.5058 23.2522 99.2275 23.2734 98.9094 23.2947C98.5914 23.3159 98.2733 23.3371 97.9552 23.3371L97.9751 23.3583Z" fill="white"/>
<path d="M106.361 23.4431C105.188 23.4431 104.174 23.2521 103.319 22.8489C102.464 22.4456 101.788 21.8726 101.311 21.1298C100.834 20.3869 100.596 19.4955 100.596 18.4768C100.596 17.4369 100.834 16.5667 101.311 15.8239C101.788 15.081 102.464 14.508 103.319 14.1047C104.174 13.7015 105.188 13.4893 106.361 13.4893C107.533 13.4893 108.547 13.7015 109.402 14.0835C110.277 14.4868 110.933 15.0598 111.41 15.8026C111.887 16.5455 112.125 17.4156 112.125 18.4344C112.125 19.4743 111.887 20.3657 111.41 21.1085C110.933 21.8514 110.277 22.4244 109.402 22.8277C108.527 23.2309 107.514 23.4219 106.361 23.4219V23.4431ZM106.361 21.151C106.897 21.151 107.355 21.0449 107.752 20.8326C108.15 20.6204 108.448 20.3233 108.686 19.92C108.905 19.5168 109.024 19.0499 109.024 18.4768C109.024 17.9038 108.905 17.4156 108.686 17.0124C108.468 16.6091 108.15 16.312 107.752 16.0998C107.355 15.8875 106.897 15.7814 106.361 15.7814C105.824 15.7814 105.367 15.8875 104.969 16.0998C104.571 16.312 104.253 16.6091 104.035 17.0124C103.816 17.4156 103.697 17.8826 103.697 18.4556C103.697 19.0286 103.816 19.5168 104.035 19.92C104.253 20.3233 104.571 20.6204 104.969 20.8326C105.367 21.0449 105.824 21.151 106.341 21.151H106.361Z" fill="white"/>
<path d="M118.726 23.4432C117.573 23.4432 116.56 23.2521 115.705 22.8489C114.85 22.4456 114.194 21.8726 113.737 21.1298C113.28 20.387 113.041 19.4956 113.041 18.4768C113.041 17.4581 113.28 16.5667 113.737 15.8239C114.194 15.081 114.85 14.508 115.705 14.1048C116.56 13.7015 117.554 13.5105 118.706 13.5105C119.859 13.5105 120.615 13.6803 121.41 13.9986C122.185 14.317 122.802 14.7839 123.279 15.357C123.756 15.9512 124.034 16.6304 124.114 17.4156V17.5005H121.211V17.4369C121.052 16.9275 120.794 16.5243 120.356 16.2483C119.939 15.9512 119.422 15.8026 118.786 15.8026C118.15 15.8026 117.772 15.9088 117.375 16.121C116.977 16.3332 116.679 16.6516 116.46 17.0336C116.242 17.4369 116.142 17.9038 116.142 18.4556C116.142 19.0286 116.242 19.5168 116.46 19.92C116.679 20.3233 116.977 20.6204 117.375 20.8327C117.772 21.0449 118.249 21.151 118.806 21.151C119.362 21.151 119.959 21.0024 120.376 20.7265C120.794 20.4506 121.072 20.0474 121.211 19.5168V19.4319H124.153V19.538C124.054 20.3233 123.776 21.0024 123.298 21.5755C122.821 22.1697 122.205 22.6154 121.43 22.9338C120.655 23.2521 119.76 23.4219 118.746 23.4219L118.726 23.4432Z" fill="white"/>
<path d="M125.348 23.231V10.4968H128.409V23.231H125.348ZM128.031 20.5781V17.4582H128.469L132.663 13.7228H136.301L130.894 18.6043L130.198 18.7528L128.051 20.5781H128.031ZM132.862 23.231L129.145 18.8165L131.212 16.8427L136.52 23.2098H132.862V23.231Z" fill="white"/>
<path d="M138.422 13.808V11.1762H137.189V10.4971H140.45V11.1762H139.237V13.808H138.422Z" fill="white"/>
<path d="M140.823 13.808V10.4971H141.797L142.91 12.8529L144.023 10.4971H144.998V13.808H144.242V11.6007H143.924L144.501 10.9428L143.169 13.808H142.612L141.28 10.9428L141.857 11.6007H141.539V13.808H140.783H140.823Z" fill="white"/>
</svg>
