<svg width="30" height="30" viewBox="0 0 30 30" fill="none" xmlns="http://www.w3.org/2000/svg">
<g clip-path="url(#clip0_102_2)">
<path d="M15 30C23.2843 30 30 23.2843 30 15C30 6.71573 23.2843 0 15 0C6.71573 0 0 6.71573 0 15C0 23.2843 6.71573 30 15 30Z" fill="#F0F0F0"/>
<path d="M29.067 9.78259H0.932988C0.33 11.4076 0 13.1652 0 15C0 16.8348 0.33 18.5923 0.932988 20.2173H29.0671C29.67 18.5923 30 16.8348 30 15C30 13.1652 29.67 11.4076 29.067 9.78259Z" fill="#0052B4"/>
<path d="M15.0002 0C10.4538 0 6.3802 2.02289 3.62939 5.21736H26.3709C23.6201 2.02289 19.5465 0 15.0002 0V0Z" fill="#D80027"/>
<path d="M26.3709 24.7826H3.62939C6.3802 27.9771 10.4538 30 15.0002 30C19.5465 30 23.6201 27.9771 26.3709 24.7826Z" fill="#D80027"/>
</g>
<defs>
<clipPath id="clip0_102_2">
<rect width="30" height="30" fill="white"/>
</clipPath>
</defs>
</svg>
